<svg xmlns="http://www.w3.org/2000/svg" width="32" height="32" viewBox="0 0 24 24" fill="none" stroke="#4338CA" stroke-width="2" stroke-linecap="round" stroke-linejoin="round">
  <path d="M2 19h3.75a.75.75 0 0 1 .6.3 4.5 4.5 0 0 0 7.2 0 .75.75 0 0 1 .6-.3H18c3.9 0 3.9-9 0-9H9.4a.4.4 0 0 0-.4.4V16"></path>
  <path d="M7 19a4.5 4.5 0 0 1-5-5"></path>
  <path d="M14 2v6"></path>
  <path d="M17 2v6"></path>
  <path d="M20 7h1v7h-1"></path>
  <path d="M18 10h1"></path>
  <path d="M12 16v-5"></path>
  <circle cx="12" cy="8" r="1"></circle>
</svg>